<!-- <svg xmlns="http://www.w3.org/2000/svg" viewBox="0 0 24 24" width="30" height="30" color="#ffffff" fill="none">
    <path d="M12 22C17.5228 22 22 17.5228 22 12C22 6.47715 17.5228 2 12 2C6.47715 2 2 6.47715 2 12C2 13.3789 2.27907 14.6926 2.78382 15.8877C3.06278 16.5481 3.20226 16.8784 3.21953 17.128C3.2368 17.3776 3.16334 17.6521 3.01642 18.2012L2 22L5.79877 20.9836C6.34788 20.8367 6.62244 20.7632 6.87202 20.7805C7.12161 20.7977 7.45185 20.9372 8.11235 21.2162C9.30745 21.7209 10.6211 22 12 22Z" stroke="currentColor" stroke-width="1.5" stroke-linejoin="round" />
    <path d="M8.58815 12.3773L9.45909 11.2956C9.82616 10.8397 10.2799 10.4153 10.3155 9.80826C10.3244 9.65494 10.2166 8.96657 10.0008 7.58986C9.91601 7.04881 9.41086 7 8.97332 7C8.40314 7 8.11805 7 7.83495 7.12931C7.47714 7.29275 7.10979 7.75231 7.02917 8.13733C6.96539 8.44196 7.01279 8.65187 7.10759 9.07169C7.51023 10.8548 8.45481 12.6158 9.91948 14.0805C11.3842 15.5452 13.1452 16.4898 14.9283 16.8924C15.3481 16.9872 15.558 17.0346 15.8627 16.9708C16.2477 16.8902 16.7072 16.5229 16.8707 16.165C17 15.8819 17 15.5969 17 15.0267C17 14.5891 16.9512 14.084 16.4101 13.9992C15.0334 13.7834 14.3451 13.6756 14.1917 13.6845C13.5847 13.7201 13.1603 14.1738 12.7044 14.5409L11.6227 15.4118" stroke="currentColor" stroke-width="1.5" />
</svg> -->


<svg xmlns="http://www.w3.org/2000/svg" shape-rendering="geometricPrecision" text-rendering="geometricPrecision" image-rendering="optimizeQuality" fill-rule="evenodd" clip-rule="evenodd" viewBox="0 0 510 512.459"><path fill="#fff" d="M435.689 74.468C387.754 26.471 324 .025 256.071 0 116.098 0 2.18 113.906 2.131 253.916c-.024 44.758 11.677 88.445 33.898 126.946L0 512.459l134.617-35.311c37.087 20.238 78.85 30.891 121.345 30.903h.109c139.949 0 253.88-113.917 253.928-253.928.024-67.855-26.361-131.645-74.31-179.643v-.012zm-179.618 390.7h-.085c-37.868-.011-75.016-10.192-107.428-29.417l-7.707-4.577-79.886 20.953 21.32-77.889-5.017-7.987c-21.125-33.605-32.29-72.447-32.266-112.322.049-116.366 94.729-211.046 211.155-211.046 56.373.025 109.364 22.003 149.214 61.903 39.853 39.888 61.781 92.927 61.757 149.313-.05 116.377-94.728 211.058-211.057 211.058v.011zm115.768-158.067c-6.344-3.178-37.537-18.52-43.358-20.639-5.82-2.119-10.044-3.177-14.27 3.178-4.225 6.357-16.388 20.651-20.09 24.875-3.702 4.238-7.403 4.762-13.747 1.583-6.343-3.178-26.787-9.874-51.029-31.487-18.86-16.827-31.597-37.598-35.297-43.955-3.702-6.355-.39-9.789 2.775-12.943 2.849-2.848 6.344-7.414 9.522-11.116s4.225-6.355 6.343-10.581c2.12-4.238 1.06-7.937-.522-11.117-1.584-3.177-14.271-34.409-19.568-47.108-5.151-12.37-10.385-10.69-14.269-10.897-3.703-.183-7.927-.219-12.164-.219s-11.105 1.582-16.925 7.939c-5.82 6.354-22.209 21.709-22.209 52.927 0 31.22 22.733 61.405 25.911 65.642 3.177 4.237 44.745 68.318 108.389 95.812 15.135 6.538 26.957 10.446 36.175 13.368 15.196 4.834 29.027 4.153 39.96 2.52 12.19-1.825 37.54-15.353 42.824-30.172 5.283-14.818 5.283-27.529 3.701-30.172-1.582-2.641-5.819-4.237-12.163-7.414l.011-.024z"/></svg>